<?xml version="1.0" encoding="UTF-8" ?>
<!DOCTYPE svg PUBLIC "-//W3C//DTD SVG 1.1//EN" "http://www.w3.org/Graphics/SVG/1.1/DTD/svg11.dtd">
<svg width="439pt" height="364pt" viewBox="0 0 439 364" version="1.1" xmlns="http://www.w3.org/2000/svg">
<path fill="#ffffff" d=" M 0.00 0.00 L 439.00 0.00 L 439.00 364.00 L 0.00 364.00 L 0.00 0.00 Z" />
<path fill="#020202" d=" M 199.60 20.75 C 204.47 20.30 209.35 19.98 214.23 19.78 C 214.60 29.36 214.97 38.95 215.31 48.53 C 220.61 48.40 225.90 48.40 231.20 48.57 C 231.11 50.77 231.02 52.97 230.94 55.17 C 221.67 54.83 212.38 55.12 203.15 55.98 C 201.98 44.23 200.77 32.49 199.60 20.75 Z" />
<path fill="#020202" d=" M 234.20 55.33 C 238.79 43.66 244.00 32.24 249.79 21.11 C 255.94 21.87 262.08 22.78 268.18 23.91 C 270.36 36.25 271.86 48.71 272.71 61.21 C 268.36 60.15 264.00 59.20 259.61 58.36 C 259.57 56.13 259.55 53.90 259.54 51.68 C 256.18 51.13 252.82 50.61 249.45 50.15 C 248.74 52.26 248.04 54.37 247.34 56.48 C 242.97 56.00 238.59 55.62 234.20 55.33 Z" />
<path fill="#020202" d=" M 173.74 24.70 C 178.54 23.72 183.36 22.87 188.20 22.13 C 189.31 29.43 190.43 36.73 191.54 44.04 C 192.12 47.59 192.03 51.64 189.55 54.51 C 186.49 58.10 181.60 59.04 177.26 60.21 C 172.71 61.13 167.81 62.50 163.28 60.76 C 160.04 59.52 157.98 56.42 156.89 53.24 C 154.35 45.90 151.97 38.50 149.49 31.13 C 154.17 29.65 158.90 28.29 163.65 27.04 C 165.80 35.04 167.83 43.08 170.04 51.06 C 170.73 56.33 180.56 54.14 178.98 49.12 C 177.37 40.95 175.45 32.84 173.74 24.70 Z" />
<path fill="#020202" d=" M 289.49 29.03 C 296.94 31.25 304.34 33.68 311.52 36.67 C 315.81 38.51 320.24 41.39 321.72 46.07 C 323.10 50.57 320.80 54.98 318.95 58.97 C 316.75 63.14 314.55 67.97 309.97 69.98 C 305.80 71.82 301.12 70.66 297.07 69.08 C 291.23 66.81 285.31 64.76 279.30 63.00 C 282.70 51.67 286.09 40.35 289.49 29.03 Z" />
<path fill="#ffffff" d=" M 257.89 29.38 C 258.41 34.54 258.83 39.72 259.17 44.90 C 256.75 44.53 254.33 44.16 251.91 43.80 C 253.84 38.97 255.83 34.16 257.89 29.38 Z" />
<path fill="#020202" d=" M 119.13 42.18 C 125.09 38.81 132.00 35.60 138.99 37.07 C 143.07 37.91 145.20 41.82 146.52 45.40 C 142.17 47.07 137.81 48.72 133.55 50.61 C 132.29 48.70 131.60 45.54 128.92 45.24 C 126.56 45.43 123.81 46.69 123.09 49.12 C 123.07 52.26 124.69 55.07 125.97 57.84 C 127.57 60.89 128.95 64.16 131.30 66.74 C 133.17 68.93 136.45 67.58 138.09 65.81 C 139.24 62.98 137.31 60.15 136.57 57.48 C 140.72 55.75 144.88 54.07 149.10 52.52 C 150.48 56.18 151.79 60.34 150.02 64.12 C 147.41 70.12 140.73 72.51 135.13 74.89 C 130.42 76.93 124.31 77.41 120.42 73.45 C 115.74 68.62 111.93 62.55 110.56 55.90 C 109.55 49.85 114.29 44.94 119.13 42.18 Z" />
<path fill="#ffffff" d=" M 301.25 39.77 C 303.91 41.10 308.14 41.54 308.86 45.00 C 308.67 48.99 306.69 52.60 305.20 56.22 C 303.95 58.60 302.92 61.78 300.01 62.52 C 297.76 62.27 295.65 61.40 293.50 60.73 C 296.03 53.72 298.65 46.75 301.25 39.77 Z" />
<path fill="#020202" d=" M 335.44 52.65 C 341.07 50.43 347.06 53.20 351.85 56.16 C 356.60 59.27 361.70 63.18 363.02 69.01 C 364.13 75.22 359.90 80.61 356.14 85.04 C 352.46 89.38 346.90 93.39 340.90 91.65 C 334.99 89.74 329.57 86.13 325.33 81.61 C 321.29 77.23 322.30 70.67 324.72 65.75 C 327.18 60.70 330.09 55.11 335.44 52.65 Z" />
<path fill="#ffffff" d=" M 344.57 61.61 C 347.85 60.00 352.96 64.14 350.80 67.71 C 349.11 71.45 346.54 74.70 344.17 78.01 C 342.67 79.80 341.24 82.02 338.90 82.74 C 336.69 82.81 334.25 81.18 333.79 78.96 C 334.26 75.38 336.56 72.42 338.35 69.39 C 340.21 66.66 341.81 63.55 344.57 61.61 Z" />
<path fill="#020202" d=" M 72.44 73.84 C 76.33 70.60 80.30 67.46 84.35 64.43 C 90.09 72.16 95.84 79.89 101.57 87.63 C 105.96 84.44 110.46 81.41 115.06 78.54 C 116.24 80.42 117.42 82.31 118.60 84.20 C 110.50 89.23 102.76 94.84 95.46 100.97 C 87.79 91.93 80.11 82.89 72.44 73.84 Z" />
<path fill="#020202" d=" M 377.54 77.45 C 383.53 82.80 389.25 88.44 394.63 94.40 C 397.49 97.67 400.24 101.50 400.51 105.99 C 400.83 110.79 395.78 114.92 391.14 113.85 C 388.84 113.33 387.03 111.71 385.24 110.29 C 386.77 112.68 388.75 115.56 387.63 118.53 C 385.93 123.60 378.68 124.61 378.30 130.36 C 375.39 126.45 372.18 122.79 369.05 119.06 C 371.14 115.44 374.70 113.09 377.24 109.85 C 378.72 106.94 375.21 104.92 373.69 102.87 C 370.21 106.23 366.78 109.66 363.32 113.03 C 360.27 109.92 357.10 106.94 353.89 104.02 C 361.77 95.16 369.67 86.31 377.54 77.45 Z" />
<path fill="#020202" d=" M 42.67 104.37 C 46.83 99.24 51.19 94.28 55.75 89.50 C 67.52 94.21 79.00 99.60 90.14 105.64 C 86.71 108.85 83.37 112.15 80.10 115.52 C 78.20 114.35 76.29 113.18 74.39 112.01 C 71.95 114.68 69.56 117.40 67.22 120.17 C 68.61 121.93 69.99 123.69 71.38 125.45 C 68.38 129.15 65.51 132.95 62.73 136.81 C 55.46 126.37 48.77 115.54 42.67 104.37 Z" />
<path fill="#ffffff" d=" M 378.35 98.28 C 380.21 96.41 382.10 94.56 383.98 92.70 C 385.45 94.39 387.25 95.94 388.06 98.09 C 388.93 100.76 385.56 103.39 383.10 102.21 C 381.20 101.33 379.85 99.67 378.35 98.28 Z" />
<path fill="#ffffff" d=" M 54.45 101.53 C 59.14 103.82 63.77 106.23 68.38 108.69 C 66.65 110.63 64.93 112.58 63.22 114.54 C 60.24 110.24 57.29 105.92 54.45 101.53 Z" />
<path fill="#020202" d=" M 142.60 118.00 C 143.48 118.00 145.25 118.00 146.13 118.00 C 146.13 127.82 146.13 137.65 146.14 147.47 C 145.19 147.47 143.29 147.46 142.35 147.46 C 142.48 146.88 142.75 145.73 142.88 145.16 C 141.21 146.30 139.43 147.29 137.57 148.10 C 134.64 148.12 131.49 147.83 129.13 145.88 C 122.86 140.32 124.72 127.77 133.50 125.90 C 136.90 125.71 140.28 126.71 142.72 129.14 C 142.53 125.43 142.60 121.71 142.60 118.00 Z" />
<path fill="#020202" d=" M 185.87 118.00 C 186.75 118.00 188.52 118.00 189.40 118.00 C 189.40 121.71 189.47 125.42 189.29 129.12 C 190.74 127.65 192.53 126.64 194.45 125.90 C 197.37 125.89 200.55 126.15 202.86 128.18 C 209.05 133.72 207.29 146.24 198.52 148.09 C 195.07 148.37 191.79 147.20 189.11 145.07 C 189.22 145.66 189.43 146.85 189.53 147.45 C 188.62 147.46 186.78 147.47 185.86 147.48 C 185.87 137.65 185.86 127.83 185.87 118.00 Z" />
<path fill="#020202" d=" M 236.13 120.00 C 237.28 120.00 238.44 120.00 239.61 120.00 C 239.60 122.00 239.60 124.00 239.60 126.00 C 241.07 126.00 242.53 126.00 244.00 126.00 C 244.00 126.75 244.00 128.25 244.00 129.00 C 242.53 129.00 241.07 129.00 239.61 129.00 C 239.67 134.28 239.41 139.58 239.82 144.86 C 241.21 144.93 242.60 144.99 244.00 145.04 C 244.00 145.79 244.00 147.30 244.00 148.05 C 241.37 147.90 236.72 148.77 236.23 145.09 C 235.93 139.74 236.22 134.36 236.13 129.00 C 234.88 129.00 233.63 129.00 232.39 129.00 C 232.39 128.25 232.39 126.75 232.39 126.00 C 233.63 126.00 234.88 126.00 236.13 126.00 C 236.12 124.00 236.12 122.00 236.13 120.00 Z" />
<path fill="#020202" d=" M 29.64 125.73 C 33.49 123.54 37.91 125.24 41.18 127.65 C 38.35 131.96 35.63 136.34 33.03 140.79 C 30.83 139.82 27.94 137.46 25.74 139.67 C 23.65 141.84 21.70 145.95 24.61 148.29 C 28.90 151.64 33.93 154.07 39.03 155.89 C 42.66 157.50 45.83 153.23 45.41 149.97 C 44.49 147.32 41.60 146.18 39.54 144.57 C 42.09 140.30 44.66 136.05 47.44 131.92 C 50.43 133.99 53.72 136.34 54.55 140.13 C 56.20 146.20 52.92 152.02 50.15 157.19 C 47.04 162.66 43.10 169.53 35.97 169.68 C 29.30 169.39 22.71 166.61 17.52 162.46 C 12.31 157.96 13.23 150.20 15.64 144.47 C 18.69 137.30 22.59 129.65 29.64 125.73 Z" />
<path fill="#020202" d=" M 153.53 145.27 C 147.50 139.20 150.73 126.36 159.99 125.98 C 166.70 125.06 171.07 131.91 170.77 137.94 C 165.19 138.11 159.60 137.85 154.03 138.13 C 154.57 140.25 154.97 142.81 157.12 143.94 C 160.50 146.24 165.61 144.97 166.99 140.97 C 167.88 141.00 169.65 141.06 170.54 141.08 C 168.77 148.44 158.61 150.26 153.53 145.27 Z" />
<path fill="#020202" d=" M 216.34 126.56 C 220.91 124.94 226.76 126.47 229.17 130.89 C 231.61 135.43 231.17 141.81 227.36 145.49 C 222.80 149.46 214.68 148.84 211.27 143.66 C 207.68 138.02 209.38 128.65 216.34 126.56 Z" />
<path fill="#020202" d=" M 250.25 129.25 C 253.87 125.06 261.35 124.67 264.91 129.12 C 267.06 131.54 267.49 134.85 267.77 137.94 C 262.19 138.11 256.60 137.85 251.03 138.13 C 251.56 140.26 251.98 142.82 254.14 143.95 C 257.52 146.24 262.61 144.95 263.99 140.97 C 264.87 141.00 266.65 141.05 267.54 141.08 C 265.68 148.98 254.14 150.42 249.60 144.19 C 246.68 139.78 246.65 133.30 250.25 129.25 Z" />
<path fill="#020202" d=" M 272.55 128.71 C 277.52 123.84 288.14 125.39 289.39 133.00 C 288.18 133.00 286.97 133.00 285.77 133.01 C 284.21 127.95 276.55 127.54 274.36 132.26 C 272.37 136.50 272.90 143.71 278.38 144.95 C 281.94 145.85 285.11 143.36 285.90 139.97 C 286.79 139.99 288.58 140.04 289.47 140.06 C 288.71 142.25 288.02 144.69 286.04 146.13 C 281.21 149.66 272.85 148.38 270.49 142.48 C 268.74 138.04 269.12 132.27 272.55 128.71 Z" />
<path fill="#020202" d=" M 299.36 126.55 C 303.92 124.95 309.76 126.47 312.17 130.88 C 314.61 135.42 314.18 141.80 310.36 145.48 C 305.81 149.47 297.66 148.84 294.26 143.65 C 290.68 138.00 292.39 128.63 299.36 126.55 Z" />
<path fill="#020202" d=" M 381.38 134.39 C 393.53 130.75 405.90 127.83 418.41 125.69 C 422.11 131.59 425.58 137.65 428.79 143.83 C 420.76 153.85 412.21 163.44 403.12 172.50 C 401.00 167.79 398.79 163.13 396.39 158.56 C 398.08 157.08 399.78 155.61 401.48 154.14 C 399.65 150.78 397.75 147.46 395.78 144.18 C 393.67 144.93 391.56 145.68 389.45 146.43 C 386.87 142.34 384.17 138.33 381.38 134.39 Z" />
<path fill="#ffffff" d=" M 134.46 129.06 C 137.88 128.28 141.60 130.52 142.35 133.99 C 142.94 137.38 142.87 141.62 139.82 143.87 C 136.55 146.40 131.27 144.74 129.93 140.85 C 128.53 136.66 129.33 130.15 134.46 129.06 Z" />
<path fill="#ffffff" d=" M 153.99 134.84 C 154.92 131.52 157.67 128.24 161.49 129.02 C 164.65 129.27 166.12 132.26 167.17 134.85 C 162.78 135.07 158.38 135.09 153.99 134.84 Z" />
<path fill="#ffffff" d=" M 193.52 129.40 C 197.84 127.43 202.86 131.38 202.59 135.97 C 203.32 140.13 200.70 145.47 195.91 145.04 C 188.07 145.02 186.87 132.20 193.52 129.40 Z" />
<path fill="#ffffff" d=" M 217.52 129.46 C 220.26 128.23 223.68 129.26 225.37 131.72 C 228.71 136.28 226.59 145.09 220.08 145.03 C 212.18 145.07 210.86 132.40 217.52 129.46 Z" />
<path fill="#ffffff" d=" M 250.99 134.83 C 251.93 131.57 254.59 128.29 258.37 129.01 C 261.60 129.19 263.11 132.23 264.17 134.84 C 259.78 135.07 255.37 135.10 250.99 134.83 Z" />
<path fill="#ffffff" d=" M 300.45 129.49 C 303.20 128.20 306.70 129.26 308.39 131.75 C 311.69 136.32 309.57 145.09 303.08 145.03 C 295.22 145.07 293.86 132.50 300.45 129.49 Z" />
<path fill="#ffffff" d=" M 402.38 142.22 C 407.43 140.78 412.49 139.43 417.58 138.15 C 413.95 141.96 410.23 145.69 406.50 149.40 C 405.14 146.99 403.77 144.60 402.38 142.22 Z" />
<path fill="#020202" d=" M 246.51 180.10 L 246.48 179.62 C 248.51 179.62 250.54 179.63 252.57 179.64 L 252.51 180.17 C 253.96 180.39 255.42 180.61 256.87 180.90 C 258.18 181.84 259.50 182.78 260.91 183.57 C 265.15 180.81 270.63 180.35 275.33 182.14 C 275.72 182.23 276.48 182.41 276.86 182.50 C 280.65 179.07 286.22 180.03 290.80 180.80 C 291.88 181.83 293.00 182.82 294.11 183.82 C 294.73 184.64 295.36 185.46 295.99 186.27 C 296.53 188.84 298.11 192.36 295.00 193.95 C 294.11 192.30 293.28 190.62 292.46 188.94 C 292.50 188.68 292.56 188.17 292.59 187.92 C 290.85 186.27 288.93 184.81 286.69 183.92 L 286.57 183.71 C 285.17 183.71 283.77 183.70 282.38 183.67 L 282.39 184.61 C 282.05 184.55 281.37 184.42 281.03 184.36 C 278.87 185.67 276.39 187.78 273.93 185.67 C 273.32 185.56 272.08 185.35 271.47 185.24 L 271.53 184.63 C 270.50 184.62 269.47 184.61 268.44 184.59 L 268.46 185.08 C 265.63 185.23 263.30 186.83 261.08 188.40 C 259.46 187.36 257.80 186.38 256.13 185.44 C 251.72 185.17 247.06 184.73 242.94 186.67 C 239.52 188.78 236.63 191.71 234.95 195.39 C 232.99 195.51 231.03 195.61 229.08 195.83 C 226.56 197.43 224.25 199.35 222.40 201.71 C 222.85 205.71 221.46 211.42 226.26 213.23 C 226.51 214.17 226.77 215.11 227.02 216.06 C 228.07 218.00 229.32 219.81 230.73 221.51 C 234.35 223.69 239.13 220.70 242.00 224.42 C 245.34 226.33 249.31 225.81 252.92 225.13 C 256.52 222.42 258.00 218.21 258.37 213.87 C 259.90 213.35 261.40 212.77 262.89 212.17 C 263.73 211.35 264.58 210.55 265.44 209.76 C 265.93 206.97 266.00 203.96 264.25 201.57 C 263.86 200.73 263.50 199.87 263.15 199.02 C 263.65 198.60 264.66 197.76 265.16 197.34 C 266.26 198.40 267.33 199.50 268.35 200.65 C 268.92 201.82 269.53 202.97 270.15 204.12 C 272.11 210.15 267.28 215.39 261.76 216.94 C 261.67 222.16 258.46 226.63 254.18 229.37 C 251.16 230.42 247.98 230.68 244.80 230.47 C 242.40 229.30 240.20 227.77 237.85 226.51 C 235.87 226.38 233.89 226.46 231.91 226.42 C 229.70 224.96 227.19 223.69 225.77 221.34 C 224.25 218.90 223.07 216.23 221.09 214.11 C 218.88 216.23 216.31 218.18 215.24 221.17 C 213.64 224.29 210.98 226.64 208.07 228.52 C 205.95 228.62 203.83 228.58 201.71 228.67 C 200.40 229.41 199.23 230.36 198.02 231.25 C 194.32 233.22 190.04 232.78 186.06 232.16 C 183.11 230.35 180.66 227.90 178.81 224.99 C 178.56 223.61 178.33 222.23 178.12 220.85 C 177.91 220.38 177.49 219.44 177.28 218.96 C 173.99 218.03 171.42 215.81 169.43 213.11 C 169.18 209.96 169.07 206.69 170.51 203.78 C 171.88 202.09 173.27 200.29 175.49 199.69 C 176.51 202.23 175.28 204.35 173.78 206.27 C 173.60 207.87 173.52 209.48 173.47 211.09 C 174.49 212.23 175.52 213.37 176.58 214.48 C 178.15 215.07 179.74 215.62 181.36 216.10 C 181.50 218.06 181.63 220.03 181.87 221.99 C 183.62 225.10 186.40 227.29 189.81 228.36 C 190.65 228.37 192.32 228.39 193.16 228.39 C 195.72 227.53 198.18 226.35 200.21 224.52 C 203.27 224.69 206.46 225.06 209.25 223.47 C 210.79 221.43 211.94 219.14 212.87 216.76 C 213.71 214.43 216.72 213.57 217.39 211.20 C 216.98 208.63 216.34 206.08 216.37 203.46 C 214.74 201.16 212.53 199.40 210.05 198.10 C 208.14 197.77 206.22 197.64 204.30 197.45 C 202.30 192.56 197.95 189.43 193.17 187.57 C 189.82 187.33 186.44 187.22 183.12 187.79 C 181.45 188.65 179.91 190.04 178.03 190.33 C 176.44 189.46 174.92 188.49 173.37 187.57 C 170.59 187.27 167.79 187.33 165.04 187.80 C 164.38 188.38 163.72 188.96 163.06 189.54 C 161.71 188.63 160.36 187.72 159.03 186.79 C 156.69 186.37 154.32 186.31 151.96 186.41 C 151.21 186.83 150.46 187.24 149.71 187.64 C 148.70 188.66 147.73 189.71 146.79 190.78 C 146.24 193.14 145.74 196.31 142.52 195.73 C 141.49 190.88 144.43 186.59 147.92 183.58 C 152.03 181.77 157.05 181.52 161.08 183.65 C 162.06 184.17 163.09 184.93 164.21 184.30 C 169.02 182.33 174.47 183.08 178.77 185.87 C 180.18 184.83 181.62 183.84 183.07 182.86 C 188.34 181.99 194.02 181.65 198.94 184.14 C 202.33 186.54 205.14 189.69 206.83 193.51 L 207.54 193.42 L 207.40 194.22 C 209.58 194.28 211.75 194.43 213.91 194.74 C 215.54 195.81 217.05 197.12 218.87 197.86 C 221.43 195.20 224.32 192.87 227.86 191.66 C 229.35 191.64 230.84 191.62 232.33 191.61 C 234.36 187.67 237.03 184.00 240.91 181.69 C 242.75 181.08 244.60 180.49 246.51 180.10 Z" />
<path fill="#020202" d=" M 287.38 196.74 C 290.42 196.59 293.40 195.94 296.37 195.30 C 296.96 197.22 297.44 199.17 297.74 201.16 C 298.03 201.76 298.62 202.95 298.92 203.55 C 300.28 203.52 301.64 203.49 303.00 203.42 C 304.61 202.79 306.26 202.25 307.88 201.66 C 311.63 201.44 315.39 201.33 319.13 201.66 C 321.60 202.50 324.01 203.50 326.36 204.64 C 328.03 206.01 329.66 207.44 331.26 208.91 C 332.33 210.22 333.42 211.52 334.52 212.82 L 334.51 213.22 C 335.54 214.79 336.51 216.40 337.49 218.00 C 337.54 218.21 337.63 218.63 337.68 218.84 C 338.13 220.09 338.55 221.34 338.94 222.62 L 339.46 222.43 C 339.47 223.23 339.51 224.82 339.52 225.61 L 340.30 225.56 C 340.42 227.26 340.56 228.97 340.68 230.68 L 341.33 230.38 C 341.72 237.45 341.88 244.54 341.35 251.62 L 340.90 251.43 C 340.54 253.01 340.15 254.58 339.66 256.12 C 339.59 256.33 339.47 256.75 339.40 256.96 C 339.13 257.49 338.59 258.54 338.32 259.07 C 338.06 259.57 337.53 260.59 337.27 261.10 C 335.00 264.21 332.33 267.07 329.14 269.25 C 327.76 270.27 326.21 271.25 325.42 272.84 C 324.92 276.10 325.56 279.38 325.65 282.65 L 326.29 282.46 C 326.39 284.51 326.53 286.57 326.62 288.63 L 327.34 288.50 C 327.19 291.03 328.05 293.86 326.49 296.11 C 325.01 298.53 322.23 299.64 319.93 301.10 C 313.71 304.24 307.52 307.49 300.93 309.79 C 299.55 310.28 298.17 310.76 296.80 311.26 C 295.88 311.56 294.97 311.88 294.07 312.22 C 292.30 312.69 290.56 313.23 288.81 313.74 C 285.62 314.74 282.35 315.46 279.11 316.24 C 275.62 316.93 272.15 317.75 268.57 317.83 L 268.62 318.34 C 265.42 318.53 262.15 318.38 259.04 319.24 C 255.05 319.38 251.06 319.43 247.08 319.19 C 244.22 316.77 242.45 313.50 241.23 310.01 C 240.99 309.50 240.51 308.46 240.27 307.95 C 239.75 306.67 239.26 305.38 238.74 304.11 C 238.23 302.70 237.69 301.31 237.18 299.91 C 235.98 296.32 234.93 292.69 233.83 289.09 C 233.25 286.35 232.50 283.66 231.72 280.98 C 231.57 280.25 231.27 278.80 231.12 278.07 C 230.72 276.56 230.44 275.01 230.16 273.48 C 230.05 273.48 229.84 273.48 229.73 273.48 C 229.59 271.32 229.43 269.17 229.17 267.02 C 228.62 265.17 228.39 263.26 228.21 261.35 L 227.77 260.64 C 227.62 258.40 227.44 256.17 227.18 253.95 C 226.39 248.82 225.44 243.70 225.24 238.51 L 224.67 238.55 C 224.57 236.84 224.46 235.14 224.37 233.44 L 223.73 233.51 C 223.63 231.64 223.50 229.78 223.35 227.92 C 222.49 225.09 221.68 222.23 221.35 219.29 C 223.85 222.06 225.64 225.57 229.11 227.32 C 230.47 227.84 230.61 229.31 231.01 230.52 L 231.29 230.47 C 231.41 232.50 231.56 234.54 231.66 236.57 L 232.28 236.50 C 232.40 238.54 232.55 240.59 232.67 242.65 L 233.25 242.42 C 233.34 244.59 233.49 246.77 233.72 248.95 C 234.45 251.25 234.56 253.69 234.76 256.09 C 235.28 258.22 235.56 260.40 235.74 262.59 L 236.19 262.59 C 236.34 265.06 236.49 267.56 237.09 269.99 C 237.44 271.65 237.78 273.33 238.23 274.98 C 238.38 276.02 238.55 277.07 238.71 278.13 C 239.10 279.46 239.44 280.80 239.77 282.15 C 240.12 283.43 240.47 284.72 240.82 286.01 C 241.21 287.34 241.54 288.68 241.88 290.04 C 242.35 291.31 242.80 292.60 243.29 293.88 C 243.44 294.62 243.60 295.36 243.76 296.11 C 244.45 298.13 245.14 300.18 245.73 302.24 C 246.31 303.54 246.91 304.84 247.52 306.13 C 247.49 306.33 247.44 306.74 247.42 306.94 C 248.29 308.43 249.16 309.93 250.03 311.43 C 254.59 311.92 259.16 311.46 263.72 311.40 L 263.55 310.85 C 266.24 310.75 268.93 310.52 271.63 310.38 L 271.64 309.86 C 275.50 309.72 279.28 308.93 282.96 307.77 C 283.99 307.59 285.02 307.43 286.06 307.27 C 288.34 306.45 290.64 305.71 292.98 305.08 C 294.67 304.47 296.35 303.84 298.04 303.20 C 300.37 302.23 302.73 301.34 305.07 300.41 C 306.68 299.61 308.31 298.84 309.95 298.10 C 313.10 296.17 316.96 295.06 319.43 292.23 C 319.82 289.28 319.45 286.31 319.35 283.36 L 318.75 283.50 C 318.63 281.15 318.45 278.81 318.31 276.47 L 317.74 276.54 C 317.57 275.03 317.39 273.52 317.20 272.02 C 316.77 270.68 316.43 269.30 316.09 267.94 C 315.73 266.63 315.41 265.30 315.08 263.99 C 314.77 262.94 314.51 261.89 314.25 260.84 C 313.59 258.89 312.93 256.95 312.28 255.01 C 311.92 253.93 311.58 252.84 311.27 251.76 C 310.73 250.54 310.20 249.32 309.67 248.11 C 308.90 246.03 308.08 243.97 307.30 241.90 C 306.19 239.60 305.16 237.27 304.23 234.90 C 304.00 234.41 303.53 233.44 303.30 232.96 C 302.58 231.29 301.88 229.62 301.20 227.94 C 300.71 226.98 300.22 226.01 299.74 225.05 C 299.31 223.98 298.87 222.93 298.43 221.87 C 297.66 220.24 296.93 218.60 296.28 216.93 C 295.70 215.59 295.14 214.26 294.55 212.94 C 294.50 212.73 294.41 212.32 294.37 212.11 C 293.59 210.38 292.86 208.63 292.20 206.85 C 291.96 206.32 291.48 205.26 291.23 204.73 C 290.58 204.42 289.94 204.11 289.30 203.79 C 287.69 204.23 286.06 204.63 284.41 204.87 L 284.61 205.26 C 283.06 205.40 281.50 205.55 279.96 205.73 C 278.62 206.14 277.27 206.49 275.92 206.82 C 275.13 207.04 273.55 207.50 272.77 207.73 C 273.22 205.12 270.40 201.76 272.75 199.77 C 274.19 199.63 275.62 199.44 277.06 199.25 C 278.95 198.66 280.89 198.22 282.80 197.67 C 284.36 197.51 285.92 197.36 287.49 197.22 L 287.38 196.74 Z" />
<path fill="#020202" d=" M 142.55 198.14 C 145.25 198.21 147.95 198.47 150.65 198.66 L 150.46 199.27 C 152.19 199.36 153.92 199.48 155.65 199.59 L 155.54 200.11 C 157.34 200.37 159.14 200.63 160.92 201.05 C 162.27 201.42 163.62 201.77 164.97 202.18 C 165.70 202.31 167.15 202.57 167.88 202.69 C 167.79 203.84 167.57 204.96 167.20 206.05 C 167.20 206.92 167.19 208.66 167.18 209.53 C 166.01 209.49 163.67 209.42 162.50 209.39 L 162.61 208.56 C 161.23 208.49 159.84 208.42 158.47 208.35 C 158.48 208.17 158.52 207.82 158.54 207.65 C 156.81 207.54 155.09 207.42 153.37 207.32 L 153.58 206.56 C 151.78 206.53 149.97 206.50 148.17 206.57 C 147.32 209.11 146.35 211.61 145.32 214.09 C 144.60 215.74 143.92 217.41 143.26 219.09 C 142.72 220.39 142.19 221.69 141.65 222.99 C 141.33 223.63 141.01 224.28 140.69 224.93 C 139.16 228.65 137.41 232.26 135.78 235.93 C 134.69 238.66 133.45 241.34 132.22 244.01 C 131.55 245.69 130.90 247.38 130.25 249.07 C 129.11 251.67 128.15 254.33 127.28 257.03 C 126.80 258.33 126.35 259.65 125.87 260.96 C 125.52 262.25 125.17 263.54 124.77 264.83 C 124.47 265.91 124.16 267.00 123.83 268.07 C 123.20 271.04 122.54 274.01 121.70 276.93 C 121.57 278.17 121.45 279.41 121.34 280.66 L 120.77 280.53 C 120.66 282.71 120.52 284.89 120.33 287.07 C 119.43 289.73 119.41 292.60 120.43 295.24 C 121.96 296.21 123.50 297.18 125.05 298.13 C 126.36 298.80 127.67 299.48 128.97 300.18 C 131.66 301.37 134.31 302.64 137.05 303.73 C 138.40 304.30 139.74 304.87 141.08 305.47 C 141.29 305.50 141.69 305.54 141.89 305.57 C 143.19 306.15 144.50 306.69 145.81 307.24 C 150.56 308.46 155.24 309.95 160.04 310.99 C 162.27 311.47 164.52 311.87 166.74 312.43 C 168.33 312.52 169.92 312.61 171.52 312.69 L 171.44 313.36 C 174.49 313.46 177.53 313.61 180.58 313.71 L 180.43 314.31 C 182.93 314.28 185.43 314.38 187.92 314.27 C 188.45 313.95 189.49 313.33 190.02 313.02 C 190.77 311.34 191.53 309.66 192.32 308.01 C 192.80 306.66 193.29 305.34 193.74 303.99 C 194.24 302.69 194.74 301.39 195.27 300.11 C 195.41 299.35 195.55 298.58 195.69 297.82 C 196.60 295.25 197.42 292.65 198.38 290.09 C 198.45 289.18 198.52 288.28 198.58 287.37 L 199.32 287.51 C 199.41 286.11 199.51 284.72 199.61 283.34 L 200.16 283.54 C 200.42 281.72 200.71 279.90 201.18 278.13 C 201.38 277.03 201.58 275.94 201.78 274.85 C 202.18 273.20 202.50 271.53 202.82 269.87 C 203.38 267.43 203.56 264.94 203.71 262.46 L 204.32 262.49 C 204.42 260.43 204.54 258.38 204.61 256.33 L 205.21 256.42 C 205.33 254.10 205.51 251.78 205.65 249.45 C 205.81 249.46 206.12 249.47 206.27 249.47 C 206.38 247.05 206.52 244.63 206.81 242.23 C 207.41 240.30 207.58 238.29 207.75 236.30 L 208.24 236.58 C 208.35 234.67 208.50 232.76 208.65 230.85 C 212.78 228.71 215.39 224.90 218.41 221.52 C 217.84 223.34 217.41 225.19 216.88 227.02 C 216.58 228.68 216.32 230.36 215.90 232.01 C 215.60 234.02 215.44 236.08 214.88 238.05 C 214.61 239.91 214.43 241.78 214.30 243.66 L 213.77 243.52 C 213.66 245.88 213.49 248.24 213.36 250.61 L 212.75 250.52 C 212.64 253.19 212.46 255.86 212.34 258.53 L 211.73 258.50 C 211.61 260.70 211.48 262.90 211.30 265.10 C 210.69 267.21 210.39 269.40 210.24 271.60 L 209.83 271.55 C 209.63 273.73 209.50 275.93 208.87 278.04 C 208.65 279.07 208.46 280.11 208.27 281.15 C 207.10 285.40 206.24 289.74 204.77 293.91 C 204.65 294.46 204.42 295.57 204.30 296.13 C 203.74 297.71 203.25 299.32 202.71 300.92 C 202.25 302.28 201.74 303.63 201.28 305.00 C 200.59 306.66 199.92 308.33 199.26 310.02 C 198.19 312.40 197.15 314.81 196.28 317.29 C 195.05 318.78 193.68 320.15 192.24 321.46 C 187.27 321.55 182.29 321.49 177.32 321.37 L 177.54 320.79 C 174.49 320.70 171.44 320.47 168.38 320.38 L 168.46 319.78 C 166.64 319.63 164.83 319.46 163.02 319.28 C 160.06 318.42 157.05 317.72 154.03 317.12 C 152.98 316.78 151.93 316.49 150.87 316.20 C 148.28 315.39 145.67 314.64 143.11 313.73 C 141.71 313.26 140.32 312.75 138.91 312.29 C 137.55 311.68 136.19 311.09 134.84 310.46 L 134.11 310.46 C 132.12 309.51 130.11 308.62 128.12 307.67 C 127.04 307.21 125.97 306.74 124.89 306.29 C 123.63 305.54 122.36 304.81 121.09 304.09 C 119.33 303.17 117.60 302.21 115.87 301.26 C 114.71 300.27 113.57 299.27 112.44 298.25 C 112.25 295.14 112.35 292.02 112.73 288.93 C 113.35 286.77 113.57 284.53 113.72 282.30 L 114.28 282.57 C 114.37 280.29 114.50 278.03 114.55 275.76 C 113.75 274.75 112.97 273.75 112.19 272.74 C 111.35 272.26 110.51 271.78 109.67 271.30 C 106.12 268.50 103.11 265.07 100.87 261.12 C 100.45 260.02 100.00 258.92 99.54 257.83 C 99.49 257.67 99.38 257.34 99.32 257.17 C 98.53 255.00 98.31 252.69 98.20 250.40 C 98.05 250.47 97.74 250.61 97.58 250.68 C 97.45 246.18 97.47 241.67 97.60 237.17 L 98.26 237.68 C 98.33 235.23 98.48 232.78 98.61 230.34 L 99.36 230.62 C 99.42 229.19 99.49 227.77 99.56 226.35 C 99.69 226.40 99.94 226.49 100.07 226.53 C 100.48 224.95 100.95 223.38 101.47 221.84 C 101.46 221.55 101.46 220.98 101.45 220.69 L 102.26 220.51 C 102.50 219.88 102.96 218.63 103.19 218.00 C 104.65 215.75 106.20 213.57 107.80 211.42 L 108.57 211.53 L 108.42 210.40 L 109.13 210.49 C 109.49 210.17 110.20 209.54 110.55 209.22 L 110.57 208.91 C 110.96 208.62 111.76 208.05 112.16 207.76 C 113.36 207.01 114.58 206.28 115.78 205.54 C 117.84 204.88 119.93 204.32 122.01 203.70 C 124.68 203.61 127.36 203.66 130.04 203.75 C 131.38 204.15 132.73 204.51 134.08 204.91 C 136.31 205.63 138.66 205.80 140.98 205.58 C 141.39 204.39 141.82 203.20 142.27 202.03 C 142.35 200.73 142.45 199.43 142.55 198.14 Z" />
<path fill="#ffffff" d=" M 307.56 203.87 C 313.44 203.40 319.77 203.04 324.98 206.35 L 325.78 206.45 L 325.16 207.33 C 325.90 207.62 327.37 208.21 328.10 208.50 C 326.39 208.15 324.70 207.74 323.02 207.30 C 317.91 205.56 312.38 206.25 307.10 206.52 C 307.25 205.63 307.40 204.75 307.56 203.87 Z" />
<path fill="#ffffff" d=" M 113.78 208.86 C 117.50 206.71 121.75 206.04 125.97 205.66 C 128.10 206.06 130.25 206.36 132.41 206.61 C 132.43 207.13 132.46 208.17 132.47 208.69 C 127.80 208.20 123.09 208.26 118.42 208.65 L 118.48 209.07 C 117.30 209.40 116.13 209.77 114.98 210.16 C 114.55 210.30 113.71 210.58 113.28 210.72 C 113.41 210.25 113.66 209.33 113.78 208.86 Z" />
<path fill="#ffffff" d=" M 304.52 215.95 C 305.66 215.53 306.81 215.11 307.94 214.65 C 312.35 214.44 317.07 213.44 321.23 215.42 C 321.51 215.45 322.07 215.51 322.35 215.55 L 322.40 216.55 L 323.20 216.47 C 323.65 216.86 324.56 217.63 325.02 218.02 C 325.58 218.90 326.15 219.79 326.71 220.68 L 327.06 220.71 C 327.59 221.83 328.15 222.94 328.70 224.06 C 329.27 225.33 329.83 226.61 330.41 227.88 C 330.45 228.55 330.53 229.87 330.57 230.54 C 330.75 230.53 331.11 230.51 331.29 230.50 C 331.41 232.56 331.56 234.62 331.67 236.69 C 331.83 236.62 332.14 236.48 332.29 236.41 C 332.29 239.82 332.31 243.24 332.36 246.65 L 331.74 246.42 C 331.61 247.65 331.47 248.88 331.34 250.12 C 330.90 251.27 330.49 252.43 330.11 253.61 L 329.30 253.60 C 329.40 253.95 329.60 254.66 329.70 255.01 C 327.62 257.43 325.41 259.74 322.91 261.72 C 321.95 260.55 321.05 259.35 320.13 258.16 C 319.70 256.75 319.27 255.33 318.79 253.95 C 318.70 253.48 318.52 252.54 318.43 252.08 C 317.85 250.77 317.28 249.46 316.71 248.16 C 316.41 247.08 316.11 246.01 315.78 244.94 C 315.07 243.25 314.31 241.58 313.52 239.93 C 313.49 239.72 313.43 239.29 313.40 239.07 C 312.30 236.73 311.31 234.33 310.27 231.96 C 309.56 230.31 308.88 228.65 308.21 226.98 C 307.98 226.46 307.51 225.42 307.27 224.90 C 306.39 222.90 305.53 220.90 304.55 218.96 C 304.52 217.95 304.52 216.95 304.52 215.95 Z" />
<path fill="#ffffff" d=" M 120.86 216.52 C 123.78 216.35 126.71 216.46 129.63 216.51 L 129.65 217.16 C 131.33 217.35 133.01 217.55 134.69 217.78 C 135.18 220.75 133.96 223.49 132.60 226.05 C 132.54 226.28 132.43 226.73 132.38 226.95 C 131.25 229.27 130.24 231.64 129.25 234.02 C 128.20 236.35 127.28 238.74 126.30 241.10 C 125.55 242.74 124.86 244.39 124.24 246.08 C 123.68 247.45 123.12 248.82 122.54 250.18 L 122.51 250.83 C 120.28 255.08 120.63 261.00 116.21 263.77 C 115.46 263.17 114.70 262.56 113.94 261.97 C 112.81 260.72 111.68 259.47 110.56 258.22 C 110.05 257.03 109.55 255.84 109.09 254.63 L 108.78 254.65 C 106.73 248.43 107.51 241.87 107.65 235.46 L 108.37 235.60 C 108.44 234.20 108.51 232.79 108.59 231.40 L 109.10 231.50 C 109.55 229.47 110.20 227.49 110.78 225.50 L 111.65 225.61 L 111.33 224.39 L 111.91 224.28 C 113.17 221.97 114.85 219.94 116.96 218.37 C 118.26 217.76 119.56 217.15 120.86 216.52 Z" />
<path fill="#020202" d=" M 288.95 226.96 C 290.78 226.50 292.63 226.07 294.45 225.52 C 295.02 226.25 295.59 226.98 296.17 227.72 C 296.96 229.86 297.90 231.95 298.80 234.05 C 300.21 237.01 301.47 240.03 302.88 243.00 C 303.76 245.35 304.68 247.68 305.69 249.99 C 306.60 252.23 307.41 254.52 308.22 256.80 C 308.58 257.82 308.95 258.84 309.35 259.85 C 309.47 260.61 309.59 261.37 309.72 262.13 C 310.24 263.39 310.77 264.67 311.29 265.94 C 311.46 266.96 311.64 267.98 311.83 269.01 C 312.24 270.51 312.58 272.04 312.85 273.58 C 312.92 273.56 313.07 273.51 313.14 273.48 C 313.41 275.32 313.72 277.16 314.26 278.95 C 314.39 280.19 314.52 281.43 314.63 282.67 L 315.25 282.60 C 315.26 285.46 315.87 288.46 314.58 291.16 C 313.38 291.82 312.18 292.50 311.00 293.18 C 309.98 293.67 308.96 294.16 307.94 294.65 C 306.93 295.15 305.92 295.65 304.92 296.15 C 303.35 296.86 301.80 297.59 300.24 298.33 C 296.21 299.67 292.19 301.04 288.08 302.15 C 287.04 302.50 286.01 302.86 285.00 303.27 C 284.10 303.37 282.31 303.57 281.41 303.67 C 281.43 303.79 281.47 304.03 281.48 304.15 C 278.63 304.52 275.84 305.23 273.03 305.83 C 270.71 306.47 268.30 306.57 265.92 306.78 C 261.85 307.75 257.63 307.57 253.48 307.58 C 250.85 305.03 250.11 301.34 248.84 298.05 C 248.48 297.08 248.12 296.10 247.76 295.14 C 247.13 293.10 246.45 291.09 245.77 289.08 C 244.64 283.85 242.86 278.75 242.21 273.42 L 241.72 273.48 C 241.61 271.76 241.49 270.06 241.38 268.35 L 240.86 268.48 C 240.52 264.42 239.31 260.49 239.29 256.40 L 238.73 256.49 C 238.61 254.45 238.46 252.42 238.36 250.38 L 237.79 250.44 C 237.68 247.48 237.50 244.50 236.64 241.65 C 237.94 241.06 239.26 240.50 240.62 240.04 C 240.73 239.75 240.93 239.17 241.03 238.89 C 241.31 240.26 241.58 241.65 241.86 243.04 C 242.25 244.71 242.57 246.41 242.90 248.10 C 243.30 249.92 243.54 251.79 243.74 253.65 L 244.19 253.55 C 244.33 255.03 244.49 256.51 244.66 257.99 C 245.09 259.35 245.47 260.73 245.84 262.12 C 246.15 263.11 246.44 264.12 246.72 265.13 C 247.19 266.41 247.64 267.69 248.11 268.98 C 248.90 270.88 249.70 272.77 250.52 274.67 C 250.66 272.11 250.54 269.54 250.17 267.01 C 249.71 265.32 249.44 263.60 249.15 261.88 C 248.52 259.13 248.40 256.30 248.31 253.49 L 247.71 253.52 C 247.62 250.10 247.39 246.68 247.38 243.26 L 246.81 243.50 C 246.78 242.12 246.74 240.75 246.71 239.38 L 246.85 239.27 C 247.49 238.45 248.18 237.67 248.92 236.93 C 249.97 236.67 251.03 236.47 252.11 236.31 C 254.66 235.32 257.31 234.63 259.92 233.79 C 261.96 233.31 263.97 232.72 266.01 232.22 C 267.34 231.83 268.68 231.48 270.03 231.15 C 271.52 230.75 273.02 230.43 274.53 230.14 L 274.46 229.74 C 275.81 229.58 277.16 229.41 278.51 229.22 C 280.14 228.72 281.83 228.43 283.52 228.17 C 283.52 228.08 283.52 227.90 283.52 227.80 C 285.33 227.57 287.15 227.35 288.95 226.96 Z" />
<path fill="#020202" d=" M 144.06 228.28 C 145.73 228.37 147.39 228.52 149.05 228.72 C 152.38 229.71 155.82 230.26 159.15 231.25 C 160.63 231.43 162.11 231.59 163.60 231.74 L 163.39 232.14 C 164.96 232.41 166.54 232.70 168.08 233.16 C 169.10 233.36 170.11 233.56 171.13 233.75 C 173.73 234.53 176.35 235.26 178.99 235.92 C 180.00 236.24 181.03 236.54 182.06 236.86 C 183.06 237.19 184.07 237.51 185.09 237.82 C 186.34 238.25 187.60 238.67 188.87 239.10 C 190.08 239.58 191.27 240.10 192.47 240.62 C 192.35 243.76 192.56 246.95 191.82 250.03 C 191.59 253.49 191.35 256.95 191.19 260.42 L 190.73 260.28 C 190.57 262.21 190.40 264.14 189.86 266.01 C 189.62 267.70 189.44 269.41 189.28 271.11 C 189.02 272.03 188.49 273.88 188.23 274.80 C 188.72 274.74 189.70 274.61 190.19 274.55 C 190.68 273.04 191.21 271.53 191.74 270.04 C 192.12 268.99 192.48 267.93 192.84 266.88 C 193.72 263.99 194.43 261.05 195.30 258.16 C 195.47 256.60 195.62 255.04 195.76 253.48 L 196.28 253.55 C 196.41 252.02 196.55 250.49 196.73 248.97 C 197.45 246.78 197.66 244.48 197.88 242.20 C 199.52 242.53 201.12 243.03 202.69 243.61 C 202.46 245.39 202.16 247.16 201.76 248.92 C 201.54 251.29 201.38 253.68 200.74 255.98 C 200.49 258.14 200.34 260.31 200.23 262.49 L 199.77 262.37 C 199.57 264.27 199.32 266.17 198.78 268.01 C 198.55 269.81 198.36 271.61 198.19 273.41 L 197.74 273.33 C 197.52 274.91 197.32 276.49 196.93 278.04 C 196.65 279.32 196.39 280.61 196.14 281.91 C 195.63 283.59 195.22 285.29 194.74 286.98 C 194.02 290.36 192.89 293.63 191.85 296.93 C 191.44 297.99 191.01 299.04 190.56 300.09 C 190.52 300.29 190.45 300.69 190.42 300.89 C 190.02 301.98 189.65 303.08 189.29 304.19 C 188.29 306.20 187.74 309.56 184.94 309.65 C 180.48 309.91 176.01 309.33 171.55 309.22 L 171.65 308.75 C 169.73 308.61 167.81 308.44 165.94 308.03 C 162.62 307.32 159.28 306.66 156.00 305.80 C 154.85 305.50 153.70 305.19 152.57 304.86 C 152.02 304.68 150.93 304.33 150.38 304.15 C 149.28 303.81 148.18 303.48 147.08 303.17 C 144.73 302.41 142.39 301.66 140.05 300.90 C 139.05 300.49 138.05 300.07 137.06 299.65 C 135.99 299.19 134.94 298.73 133.87 298.29 C 132.93 297.78 132.00 297.27 131.07 296.75 C 130.08 296.25 129.08 295.76 128.07 295.27 C 126.96 294.55 125.85 293.83 124.72 293.14 C 124.46 292.16 124.17 291.20 123.84 290.25 C 124.49 287.73 124.60 285.13 124.72 282.55 C 124.84 282.55 125.08 282.57 125.20 282.57 C 125.45 280.85 125.70 279.13 126.23 277.47 C 126.41 276.12 126.58 274.77 126.74 273.42 L 127.32 273.55 C 127.44 272.33 127.56 271.11 127.70 269.90 C 128.63 267.29 129.44 264.64 130.30 262.00 C 131.04 259.59 131.89 257.22 132.68 254.83 C 133.21 253.57 133.73 252.32 134.28 251.08 C 135.11 249.01 135.98 246.96 136.74 244.87 C 137.99 242.20 139.21 239.51 140.55 236.88 L 140.53 236.16 C 140.93 235.41 141.33 234.67 141.73 233.93 C 142.55 232.06 143.34 230.19 144.06 228.28 Z" />
</svg>
